<?xml version="1.0" standalone="no"?>
<!DOCTYPE svg PUBLIC "-//W3C//DTD SVG 20010904//EN"
 "http://www.w3.org/TR/2001/REC-SVG-20010904/DTD/svg10.dtd">
<svg version="1.0" xmlns="http://www.w3.org/2000/svg"
 width="462.000000pt" height="494.000000pt" viewBox="0 0 462.000000 494.000000"
 preserveAspectRatio="xMidYMid meet">
<metadata>
Created by potrace 1.15, written by Peter Selinger 2001-2017
</metadata>
<g transform="translate(0.000000,494.000000) scale(0.100000,-0.100000)"
fill="#000000" stroke="none">
<path d="M1020 4829 c0 -6 -9 -8 -20 -4 -13 4 -30 -1 -47 -15 -18 -14 -30 -17
-37 -10 -14 14 -26 13 -26 -4 0 -8 -31 -46 -70 -85 -46 -47 -70 -80 -70 -95 0
-13 -9 -31 -20 -41 -10 -9 -24 -33 -31 -52 -6 -20 -24 -60 -41 -91 -16 -30
-28 -62 -27 -71 1 -9 -8 -38 -19 -64 -12 -27 -22 -54 -22 -61 0 -7 -9 -21 -20
-31 -11 -10 -17 -21 -14 -26 2 -4 0 -16 -5 -26 -23 -44 -44 -156 -55 -298 -2
-22 -6 -48 -10 -57 -4 -9 -5 -22 -1 -28 4 -6 2 -16 -3 -23 -17 -22 -21 -121
-6 -141 7 -11 11 -23 8 -27 -3 -5 0 -18 7 -30 9 -18 7 -26 -10 -50 -12 -15
-21 -39 -21 -53 0 -14 -6 -29 -14 -33 -13 -8 -25 -46 -30 -93 -5 -45 -18 -80
-35 -90 -13 -7 -14 -12 -3 -29 16 -27 16 -29 -9 -33 -20 -3 -19 -5 9 -33 21
-21 27 -34 21 -42 -6 -6 -6 -14 -2 -16 5 -3 8 -27 7 -54 -2 -47 -3 -48 -33
-45 -37 4 -42 -15 -11 -43 21 -19 27 -45 10 -45 -5 0 -10 -6 -10 -14 0 -23
-17 -28 -33 -11 -16 15 -37 20 -37 8 0 -3 7 -14 16 -24 20 -22 9 -46 -12 -28
-8 6 -17 10 -20 7 -8 -8 -7 -90 1 -120 5 -18 2 -39 -8 -61 -9 -18 -14 -43 -10
-55 3 -12 0 -29 -7 -37 -6 -8 -9 -19 -6 -24 4 -5 1 -13 -5 -16 -5 -4 -8 -13
-5 -20 2 -7 -2 -22 -10 -33 -11 -16 -11 -21 -1 -25 9 -4 9 -7 -1 -18 -6 -7
-12 -23 -12 -35 0 -12 -7 -25 -16 -28 -15 -6 -15 -9 3 -29 17 -18 20 -32 16
-72 -8 -82 -5 -115 10 -138 9 -14 13 -42 11 -77 -2 -47 1 -59 23 -82 29 -30
24 -48 -15 -49 l-27 0 25 -10 25 -10 -25 -19 c-14 -11 -31 -20 -37 -20 -20 0
-15 -20 5 -20 10 0 27 -6 37 -14 18 -13 18 -15 2 -39 -22 -33 -21 -35 5 -39
28 -4 36 -28 9 -28 -11 0 -23 -5 -26 -10 -4 -6 -11 -8 -16 -5 -21 13 -25 -7
-13 -57 8 -29 14 -80 14 -113 0 -49 4 -62 20 -73 11 -6 31 -29 45 -50 88 -132
104 -159 109 -192 3 -21 13 -43 21 -50 8 -7 15 -20 15 -29 0 -10 19 -39 43
-65 80 -90 187 -196 197 -196 6 0 10 -6 10 -13 0 -11 17 -31 84 -94 24 -23
119 -48 139 -36 6 4 8 -3 4 -20 -7 -24 -6 -25 33 -20 42 6 44 3 41 -42 -1 -14
8 -24 29 -32 20 -8 30 -18 30 -32 0 -12 6 -21 15 -21 8 0 22 -12 32 -27 29
-45 44 -52 98 -46 48 6 49 6 35 -13 -8 -10 -19 -22 -25 -26 -5 -4 2 -8 17 -8
20 0 27 -6 30 -21 2 -12 12 -27 23 -33 11 -6 26 -19 34 -29 7 -11 21 -17 31
-14 11 3 28 -5 41 -19 28 -30 53 -31 65 -3 9 20 11 20 26 5 9 -8 14 -24 11
-35 -7 -27 25 -42 100 -45 57 -3 87 -13 127 -42 27 -21 67 -25 80 -9 7 8 21
15 31 15 10 0 21 5 24 10 9 15 25 12 25 -4 0 -16 21 -26 56 -26 19 0 24 -5 25
-27 0 -28 0 -28 10 -5 11 28 46 26 41 -2 -3 -16 2 -17 36 -11 21 3 54 7 71 7
20 1 37 8 44 20 7 10 18 18 25 18 7 0 20 4 30 9 37 19 91 31 137 31 48 0 111
14 152 32 12 6 28 8 37 5 8 -3 20 1 26 9 7 8 21 14 31 14 29 0 23 22 -19 63
-35 35 -67 52 -44 24 8 -9 4 -15 -14 -24 -14 -6 -26 -7 -30 -2 -8 14 -24 0
-17 -16 8 -23 -12 -18 -45 10 -36 31 -42 31 -42 3 0 -20 -1 -20 -18 -5 -26 24
-29 22 -51 -26 -15 -32 -21 -38 -26 -25 -4 9 -4 22 0 28 5 8 1 11 -10 8 -10
-1 -23 -12 -29 -23 -23 -42 -38 -44 -72 -10 -31 31 -47 24 -39 -16 8 -33 -4
-38 -23 -9 -18 29 -42 25 -42 -6 0 -22 -4 -25 -21 -21 -12 3 -29 1 -39 -6 -25
-15 -48 5 -52 45 -3 32 -28 53 -28 23 0 -13 -8 -9 -37 15 l-38 31 -17 -22
c-10 -12 -18 -33 -18 -47 0 -24 -1 -25 -13 -7 -10 13 -22 16 -41 13 -24 -5
-29 -1 -38 24 -10 27 -12 28 -26 14 -14 -14 -17 -14 -28 1 -10 14 -17 15 -48
6 -34 -11 -36 -10 -43 15 -5 23 -7 24 -19 8 -12 -17 -13 -16 -24 4 -10 18 -19
21 -53 18 -32 -2 -42 1 -43 12 -1 8 -2 21 -3 29 0 7 -7 11 -15 8 -9 -4 -17 2
-21 14 -4 10 -15 19 -26 19 -12 0 -19 7 -19 20 0 15 -7 20 -24 20 -14 0 -28
-5 -31 -10 -4 -6 -11 -8 -16 -4 -5 3 -7 10 -3 15 3 6 -1 18 -9 27 -9 9 -19 30
-23 46 -4 19 -17 32 -35 39 -15 6 -33 21 -40 34 -9 17 -18 21 -32 17 -16 -5
-18 -2 -12 15 9 29 -15 36 -54 16 -30 -15 -31 -15 -31 5 0 11 -8 23 -17 26
-10 3 -25 10 -33 15 -8 5 -25 13 -37 19 -13 5 -23 14 -23 20 0 6 -5 8 -10 5
-6 -4 -17 -1 -25 5 -9 7 -28 10 -45 6 -22 -4 -30 -2 -30 9 0 8 5 15 10 15 6 0
5 8 -2 20 -8 13 -22 20 -38 19 -28 -2 -80 19 -80 33 0 5 12 20 28 34 l27 26
-49 -7 c-42 -7 -48 -6 -43 8 6 17 -11 27 -49 27 -20 0 -24 5 -24 30 0 20 7 33
21 41 17 9 19 13 8 20 -8 5 -22 9 -33 9 -10 0 -29 11 -42 25 -16 17 -39 27
-71 32 -38 5 -43 8 -28 15 26 11 56 64 49 83 -5 11 1 15 24 15 17 0 33 -4 36
-9 7 -10 107 -2 120 10 14 13 -22 23 -38 10 -14 -12 -72 -5 -93 11 -7 6 -40
12 -73 15 -54 5 -61 8 -57 25 4 13 -2 20 -21 24 -15 4 -33 12 -40 17 -22 17
14 40 40 26 29 -16 69 -21 105 -14 43 8 42 25 -1 25 -22 0 -36 6 -40 16 -4 10
-14 14 -26 11 -11 -3 -23 -1 -26 5 -3 5 4 12 16 15 16 4 18 8 8 14 -7 5 -20 9
-29 9 -9 0 -38 9 -64 21 -52 23 -47 39 13 39 25 0 32 4 32 20 0 23 10 26 28 8
9 -10 16 -8 29 5 16 16 15 17 -18 17 -45 0 -55 9 -29 27 14 10 19 21 15 33 -4
11 0 22 10 28 15 8 15 10 1 21 -11 10 -20 10 -28 3 -17 -14 -68 -3 -68 14 0 7
5 16 10 19 6 4 3 17 -10 35 -26 37 -25 44 6 59 19 8 24 16 19 29 -9 21 -9 29
0 73 5 28 3 38 -9 42 -21 8 -20 34 2 41 9 3 22 17 29 31 9 21 9 25 -6 25 -9 0
-27 7 -39 16 -26 18 -30 74 -8 113 11 20 11 28 0 49 -7 14 -10 39 -7 58 5 29
3 34 -15 34 -11 0 -22 8 -26 18 -3 9 -9 23 -12 29 -4 9 5 12 35 9 45 -4 58 11
14 16 -18 2 -29 10 -31 22 -3 16 0 18 22 12 31 -8 32 -2 6 31 -16 20 -17 29
-9 40 7 7 12 38 13 69 0 49 3 55 19 50 13 -3 17 0 13 9 -8 22 14 85 29 85 8 0
15 9 15 19 0 15 -5 18 -21 14 -17 -5 -20 -2 -17 13 2 12 12 19 27 19 20 0 24
6 27 35 3 19 10 38 18 42 7 4 13 20 14 36 0 16 7 45 15 63 8 21 11 42 6 54
-15 38 -10 240 7 281 28 72 69 149 83 160 8 6 12 18 8 27 -3 8 -3 18 1 22 12
12 9 86 -3 81 -7 -2 -22 16 -34 41 -21 43 -21 47 -5 64 19 21 42 15 24 -6 -8
-10 -4 -14 16 -19 20 -5 23 -10 14 -21 -7 -9 -8 -15 0 -20 30 -19 32 27 2 73
-13 20 -13 22 2 16 23 -9 20 9 -5 24 -18 11 -23 11 -35 -5 -14 -17 -14 -16
-12 6 4 30 21 37 41 16 20 -19 37 -19 37 0 0 8 -4 15 -9 15 -4 0 -6 11 -3 25
3 17 -1 27 -12 31 -25 10 -32 -4 -10 -21 18 -14 18 -14 -4 -15 -21 0 -23 3
-21 65 2 60 11 83 21 53 8 -24 41 21 35 47 -2 14 0 25 4 25 16 0 10 60 -6 66
-21 8 -19 22 3 20 10 0 17 6 17 16 0 9 10 26 23 38 26 24 27 33 7 50 -21 17
-19 24 14 70 25 34 30 38 41 25 7 -8 17 -15 23 -15 7 0 7 4 -1 12 -7 7 -12 23
-12 37 0 15 -6 37 -13 51 -13 27 -11 74 3 65 4 -3 6 4 3 15 -4 14 0 20 11 20
9 0 16 7 16 15 0 8 7 15 15 15 17 0 19 12 5 26 -10 10 4 60 20 74 4 3 23 31
44 63 21 31 45 57 53 57 9 0 13 -6 9 -15 -3 -8 -1 -15 4 -15 6 0 10 10 10 23
0 28 38 67 66 67 10 0 25 4 32 9 19 11 99 -5 150 -31 48 -24 132 -109 132
-133 0 -8 5 -15 11 -15 7 0 9 -10 5 -25 -4 -14 -3 -25 1 -25 9 0 33 -48 33
-67 0 -7 4 -13 10 -13 13 0 43 -67 35 -79 -3 -6 0 -8 8 -5 11 4 17 -5 22 -36
8 -48 32 -100 47 -100 5 0 8 -6 5 -14 -3 -8 1 -17 9 -20 8 -3 14 -15 14 -26 0
-11 5 -20 10 -20 6 0 10 -8 10 -17 0 -10 9 -33 20 -51 12 -20 18 -42 15 -53
-4 -13 -2 -19 6 -17 8 2 14 -7 15 -20 1 -13 10 -33 21 -45 12 -12 29 -38 38
-57 10 -18 24 -40 31 -48 8 -7 14 -19 14 -25 0 -7 9 -23 20 -37 11 -14 20 -32
20 -41 0 -9 15 -39 33 -65 63 -91 99 -186 76 -200 -12 -7 -11 -44 1 -44 6 0
10 5 10 10 0 6 7 10 16 10 9 0 23 8 30 18 11 14 16 15 33 5 11 -7 27 -10 36
-7 10 4 15 0 15 -11 0 -17 1 -17 21 1 20 18 21 18 35 -1 8 -11 13 -28 10 -37
-5 -21 3 -22 27 -3 15 11 17 21 12 46 l-7 32 27 -21 c34 -27 45 -28 45 -2 0
26 12 25 35 0 10 -12 25 -18 32 -16 7 3 16 -1 20 -8 10 -18 50 -29 57 -17 3 5
32 8 64 7 48 -2 59 -5 67 -24 13 -29 35 -28 36 1 1 17 3 15 11 -10 11 -33 23
-39 75 -34 12 1 24 -3 27 -8 3 -5 15 -7 27 -4 16 5 20 1 19 -13 -4 -32 -1 -35
23 -19 26 17 39 11 30 -12 -5 -13 0 -15 26 -11 22 3 35 0 38 -9 4 -10 9 -11
18 -3 17 14 27 -12 19 -46 -5 -18 -1 -29 12 -39 26 -19 32 -18 39 5 7 21 39
27 50 9 4 -6 23 -9 43 -7 31 2 37 0 42 -22 10 -42 35 -34 105 34 36 36 73 66
80 66 8 0 25 10 38 23 86 79 107 92 141 88 11 -2 16 2 11 9 -10 16 26 40 50
35 11 -3 14 -2 8 1 -26 11 -13 26 17 21 25 -6 30 -3 30 13 0 11 7 20 15 20 8
0 15 6 15 14 0 16 95 57 115 49 10 -3 13 0 10 8 -3 8 -1 19 3 25 8 12 118 85
145 96 9 4 20 14 23 23 4 8 12 15 18 15 7 0 21 8 32 18 21 18 51 37 97 60 15
7 27 18 27 23 0 5 6 9 14 9 7 0 24 11 37 23 46 46 128 94 169 101 66 10 166
-11 202 -44 25 -23 29 -34 25 -57 -4 -15 -4 -23 -1 -16 9 21 34 2 34 -27 0
-16 5 -30 10 -32 13 -4 17 -54 7 -90 -6 -23 -4 -28 10 -28 17 -1 17 -1 0 -11
-18 -10 -18 -11 0 -24 14 -11 16 -16 6 -26 -7 -7 -13 -25 -13 -40 0 -15 -4
-30 -9 -33 -10 -7 -2 -56 12 -75 9 -10 6 -17 -8 -27 -10 -8 -25 -14 -32 -14
-7 0 -13 -4 -13 -10 0 -5 -7 -10 -15 -10 -22 0 -20 -56 3 -69 16 -10 16 -10 0
-11 -28 0 -31 -19 -6 -40 l23 -20 -22 -6 c-26 -7 -30 -22 -39 -141 -5 -69 -10
-90 -20 -86 -16 6 -44 -47 -44 -85 0 -16 -7 -35 -15 -42 -8 -7 -15 -21 -15
-32 0 -10 -7 -32 -16 -49 -15 -30 -11 -69 7 -69 5 0 9 -7 9 -15 0 -12 -4 -13
-19 -6 -14 8 -22 6 -35 -8 -18 -20 -10 -37 10 -20 8 7 14 7 19 -1 9 -14 -13
-40 -34 -40 -23 -1 -56 -30 -74 -67 -13 -28 -13 -34 -1 -44 16 -13 19 -65 4
-74 -6 -4 -5 -13 2 -25 10 -16 8 -24 -10 -50 -18 -24 -19 -30 -7 -30 24 0 18
-32 -15 -84 -17 -27 -28 -55 -25 -65 5 -16 -19 -54 -61 -95 -11 -12 -33 -48
-48 -81 -15 -33 -35 -64 -43 -68 -12 -8 -12 -10 2 -21 21 -15 27 -112 8 -128
-18 -14 -16 -37 2 -44 24 -10 17 -27 -8 -22 -20 4 -23 1 -19 -24 3 -18 0 -28
-8 -28 -8 0 -10 -7 -5 -17 13 -33 12 -73 -2 -73 -7 0 -12 -3 -12 -7 3 -20 -2
-33 -12 -33 -8 0 -8 5 1 15 16 19 -5 20 -39 1 -19 -10 -20 -14 -8 -19 20 -8
33 -75 19 -97 -8 -13 -7 -21 1 -29 9 -9 6 -13 -11 -17 -28 -8 -28 -20 1 -28
19 -6 20 -8 6 -19 -8 -6 -18 -20 -22 -30 -3 -9 -11 -17 -17 -17 -5 0 -10 -6
-10 -14 0 -8 -14 -19 -31 -25 -31 -11 -31 -11 -15 -36 20 -30 20 -45 1 -45
-10 0 -15 -10 -15 -29 0 -21 -6 -32 -19 -36 -12 -4 -18 -12 -15 -20 3 -8 -5
-28 -18 -44 -19 -25 -30 -30 -70 -30 -41 -1 -48 2 -48 18 0 20 -25 35 -41 25
-6 -3 -17 0 -25 7 -8 6 -17 9 -20 6 -13 -12 6 -37 33 -43 41 -10 47 -27 15
-41 -17 -8 -21 -12 -10 -13 9 0 24 -10 32 -22 14 -19 14 -25 1 -45 -8 -12 -14
-32 -12 -45 2 -20 -2 -22 -31 -20 -32 3 -33 2 -22 -18 14 -26 -4 -56 -19 -32
-5 8 -17 11 -34 7 -14 -4 -35 -1 -47 5 -35 19 -150 48 -155 40 -6 -10 87 -50
114 -50 63 0 121 -68 83 -97 -23 -17 -32 -16 -32 2 0 8 5 15 10 15 6 0 10 4
10 9 0 4 -11 6 -25 3 -26 -5 -33 -26 -14 -38 8 -5 6 -10 -5 -16 -9 -5 -16 -14
-16 -20 0 -14 -26 -34 -78 -60 -37 -18 -45 -19 -53 -7 -8 12 -12 11 -23 -3
-15 -20 -41 -24 -51 -8 -3 5 -13 10 -22 10 -15 0 -14 -2 0 -18 27 -30 20 -34
-40 -26 -52 6 -56 5 -45 -9 10 -12 10 -16 0 -19 -10 -4 -10 -8 1 -22 13 -16
12 -17 -12 -12 -15 3 -38 8 -52 11 -20 4 -25 1 -25 -14 0 -17 -5 -18 -40 -14
-31 4 -40 2 -40 -9 0 -27 -20 -36 -56 -25 -37 11 -55 4 -36 -15 17 -17 15 -23
-13 -36 -21 -10 -24 -16 -19 -38 7 -26 7 -26 -16 -8 -12 11 -28 25 -36 32 -13
13 -18 8 -15 -12 1 -5 -8 -6 -19 -3 -19 5 -21 3 -15 -21 3 -15 13 -37 20 -49
12 -18 20 -20 47 -14 19 5 47 20 63 35 31 29 96 66 116 66 6 0 24 11 41 25 16
14 40 25 53 25 12 0 29 9 37 21 11 17 33 24 112 36 55 8 115 23 135 33 39 21
116 89 123 110 2 7 16 13 30 13 15 -1 29 6 32 13 3 8 11 14 18 14 14 0 31 24
60 83 11 21 30 42 44 47 13 5 29 21 36 35 6 13 19 27 30 30 13 5 16 13 13 28
-7 25 45 82 80 89 11 2 20 11 20 20 0 9 4 20 8 24 4 4 7 19 7 33 0 18 10 32
30 46 21 14 28 25 24 40 -5 19 4 48 24 85 24 42 32 61 32 78 0 11 9 27 21 38
17 15 19 25 14 66 -6 39 -4 49 9 54 13 5 15 14 10 39 -4 23 -1 37 13 50 10 10
18 26 19 34 1 9 2 26 3 39 0 13 12 33 25 46 25 26 40 88 24 104 -7 7 -6 21 3
46 11 31 11 38 -4 54 -22 24 -22 49 2 64 15 9 17 15 8 29 -17 28 7 91 43 111
18 10 30 25 30 37 0 11 13 27 30 37 26 16 29 23 28 64 0 25 4 65 10 90 6 25
18 89 28 143 15 87 22 106 65 170 34 51 63 114 99 216 28 80 59 160 70 178 11
19 20 39 20 45 0 5 6 24 14 41 17 38 28 94 32 162 4 79 12 147 23 191 12 47 6
222 -9 273 -5 19 -7 38 -4 43 3 4 -13 42 -36 84 -39 69 -47 77 -99 101 -80 36
-157 39 -224 9 -69 -32 -153 -83 -207 -127 -25 -20 -80 -58 -124 -85 -43 -27
-93 -61 -111 -77 -38 -32 -182 -127 -193 -127 -4 0 -18 -9 -32 -21 -39 -31
-161 -113 -207 -139 -24 -13 -43 -27 -43 -31 0 -9 -127 -99 -139 -99 -4 0 -16
-9 -26 -20 -10 -11 -22 -20 -27 -20 -4 0 -16 9 -25 20 -10 11 -28 20 -41 20
-22 0 -69 27 -100 57 -7 7 -24 13 -36 13 -13 0 -34 9 -48 19 -13 11 -37 23
-52 27 -14 3 -32 14 -39 23 -14 20 -33 29 -106 50 -52 15 -63 25 -75 65 -5 15
-9 16 -21 6 -12 -10 -16 -9 -21 4 -8 21 -30 21 -38 0 -5 -13 -9 -14 -21 -4 -9
7 -23 9 -37 4 -13 -4 -34 -9 -48 -10 -14 -1 -37 -5 -51 -9 -18 -5 -31 -2 -43
10 -13 14 -27 16 -64 12 -33 -5 -53 -2 -66 8 -25 19 -56 19 -84 0 -16 -12 -34
-14 -72 -9 -44 6 -53 11 -67 38 -9 17 -16 41 -14 54 2 18 -2 22 -20 20 -19 -3
-24 3 -31 36 -5 22 -17 45 -27 52 -10 7 -21 26 -24 41 -3 15 -21 50 -39 77
-18 27 -39 58 -45 70 -22 36 -83 174 -83 185 0 6 -16 34 -35 62 -19 28 -35 59
-35 69 0 9 -8 28 -18 41 -10 13 -24 43 -30 65 -7 23 -19 47 -27 54 -8 7 -15
16 -15 21 0 16 -105 224 -129 257 -14 17 -30 32 -36 32 -7 0 -20 9 -30 20 -10
11 -23 20 -30 20 -7 0 -20 9 -30 20 -10 11 -28 20 -40 20 -13 0 -28 7 -35 15
-14 17 -30 20 -30 4z m-360 -549 c0 -5 -4 -10 -10 -10 -5 0 -10 5 -10 10 0 6
5 10 10 10 6 0 10 -4 10 -10z m-60 -182 c0 -16 -3 -19 -11 -11 -6 6 -8 16 -5
22 11 17 16 13 16 -11z m3798 -743 c-2 -2 -15 -1 -28 2 l-25 7 25 6 c22 6 39
-4 28 -15z m-8 -59 c-14 -14 -24 0 -16 21 6 15 8 15 16 3 6 -9 5 -19 0 -24z
m-16 -115 c-4 -17 -9 -30 -11 -27 -3 2 -2 19 2 36 9 41 17 33 9 -9z m-4021
-1543 c15 -7 27 -16 27 -20 0 -13 -55 -9 -68 4 -28 28 -5 37 41 16z m-25 -86
c2 -7 -6 -12 -17 -12 -21 0 -27 11 -14 24 9 9 26 2 31 -12z m3200 -530 c2 -7
-2 -10 -12 -6 -9 3 -16 11 -16 16 0 13 23 5 28 -10z m-2398 -468 c0 -8 -9 -14
-20 -14 -19 0 -27 19 -14 33 10 9 34 -4 34 -19z m41 -37 c-13 -13 -26 -3 -16
12 3 6 11 8 17 5 6 -4 6 -10 -1 -17z m689 -217 c9 -16 8 -18 -5 -14 -8 4 -15
12 -15 20 0 20 7 17 20 -6z"/>
<path d="M1210 4539 c0 -38 24 -35 28 4 2 19 -1 27 -12 27 -11 0 -16 -10 -16
-31z"/>
<path d="M945 4470 c-3 -5 1 -10 10 -10 9 0 13 5 10 10 -3 6 -8 10 -10 10 -2
0 -7 -4 -10 -10z"/>
<path d="M1240 4395 c0 -8 2 -15 4 -15 2 0 6 7 10 15 3 8 1 15 -4 15 -6 0 -10
-7 -10 -15z"/>
<path d="M1101 4369 c11 -11 23 -18 27 -15 3 4 -3 13 -14 21 -28 22 -37 18
-13 -6z"/>
<path d="M1292 4320 c-18 -30 -15 -37 18 -36 16 1 30 2 30 3 0 1 -4 13 -10 27
-11 31 -21 33 -38 6z"/>
<path d="M1320 4212 c0 -10 22 -32 32 -32 4 0 5 6 2 14 -6 16 -34 30 -34 18z"/>
<path d="M1340 4129 c0 -8 8 -22 18 -30 9 -9 22 -25 28 -35 8 -13 15 -16 22
-9 7 7 -2 23 -29 50 -24 24 -39 34 -39 24z"/>
<path d="M1215 4120 c3 -5 8 -10 11 -10 2 0 4 5 4 10 0 6 -5 10 -11 10 -5 0
-7 -4 -4 -10z"/>
<path d="M1437 4103 c-4 -6 0 -19 9 -27 18 -19 31 -21 17 -3 -6 6 -12 19 -15
27 -3 9 -7 10 -11 3z"/>
<path d="M982 4071 c-9 -5 0 -13 30 -24 53 -21 58 -21 58 -2 0 27 -59 45 -88
26z"/>
<path d="M1090 4041 c0 -6 5 -13 10 -16 6 -3 10 1 10 9 0 9 -4 16 -10 16 -5 0
-10 -4 -10 -9z"/>
<path d="M1404 3984 c32 -30 56 -63 72 -102 24 -60 61 -88 48 -37 -11 43 -48
107 -69 119 -10 6 -30 23 -43 39 -13 15 -31 27 -40 27 -11 -1 0 -16 32 -46z"/>
<path d="M1150 4013 c0 -15 73 -34 84 -23 13 13 8 17 -41 25 -25 4 -43 3 -43
-2z"/>
<path d="M1395 3920 c-3 -5 1 -13 10 -16 22 -9 29 1 11 15 -10 8 -16 9 -21 1z"/>
<path d="M4115 3921 c-6 -11 9 -23 19 -14 9 9 7 23 -3 23 -6 0 -12 -4 -16 -9z"/>
<path d="M590 3890 c0 -5 5 -10 10 -10 6 0 10 5 10 10 0 6 -4 10 -10 10 -5 0
-10 -4 -10 -10z"/>
<path d="M4040 3865 c-13 -14 -21 -28 -17 -31 6 -7 67 36 67 48 0 16 -27 7
-50 -17z"/>
<path d="M1602 3818 c2 -6 10 -14 16 -16 7 -2 10 2 6 12 -7 18 -28 22 -22 4z"/>
<path d="M3952 3811 c2 -7 7 -12 11 -12 12 1 9 15 -3 20 -7 2 -11 -2 -8 -8z"/>
<path d="M3935 3774 c9 -9 19 -13 23 -10 3 4 0 11 -8 16 -24 15 -33 11 -15 -6z"/>
<path d="M4350 3766 c0 -17 14 -29 23 -20 8 8 -3 34 -14 34 -5 0 -9 -6 -9 -14z"/>
<path d="M1325 3760 c3 -5 10 -10 16 -10 5 0 9 5 9 10 0 6 -7 10 -16 10 -8 0
-12 -4 -9 -10z"/>
<path d="M1550 3741 c0 -6 5 -13 10 -16 6 -3 10 1 10 9 0 9 -4 16 -10 16 -5 0
-10 -4 -10 -9z"/>
<path d="M1604 3736 c-8 -22 3 -33 18 -18 9 9 9 15 0 24 -9 9 -13 7 -18 -6z"/>
<path d="M3840 3723 c0 -18 5 -23 25 -23 14 0 28 7 31 15 4 8 12 15 20 15 8 0
14 4 14 8 0 5 -20 9 -45 9 -40 0 -45 -3 -45 -24z"/>
<path d="M1440 3725 c0 -16 27 -32 37 -21 7 7 -16 36 -28 36 -5 0 -9 -7 -9
-15z"/>
<path d="M3800 3715 c0 -8 -4 -15 -10 -15 -5 0 -10 -5 -10 -12 0 -6 9 -3 20 7
22 20 26 35 10 35 -5 0 -10 -7 -10 -15z"/>
<path d="M1580 3660 c0 -5 5 -10 10 -10 6 0 10 5 10 10 0 6 -4 10 -10 10 -5 0
-10 -4 -10 -10z"/>
<path d="M3735 3650 c-3 -5 1 -10 9 -10 9 0 16 5 16 10 0 6 -4 10 -9 10 -6 0
-13 -4 -16 -10z"/>
<path d="M3701 3626 c-8 -9 -11 -19 -7 -23 9 -9 29 13 24 27 -2 8 -8 7 -17 -4z"/>
<path d="M1601 3594 c0 -11 3 -14 6 -6 3 7 2 16 -1 19 -3 4 -6 -2 -5 -13z"/>
<path d="M1460 3590 c0 -5 5 -10 11 -10 5 0 7 5 4 10 -3 6 -8 10 -11 10 -2 0
-4 -4 -4 -10z"/>
<path d="M3756 3583 c-14 -15 -75 -30 -88 -22 -21 13 -55 10 -61 -5 -3 -8 -19
-17 -36 -21 -16 -3 -35 -13 -42 -21 -6 -8 -20 -14 -31 -14 -10 0 -22 -8 -25
-17 -4 -10 -10 -20 -13 -23 -4 -3 -10 -14 -14 -26 -6 -19 -3 -20 35 -17 22 2
50 10 62 18 21 15 21 15 -11 15 -17 0 -32 3 -32 8 1 20 24 31 130 57 63 16
120 35 126 42 6 7 16 13 22 13 6 0 14 5 17 10 7 11 -28 14 -39 3z"/>
<path d="M610 3570 c0 -5 7 -10 16 -10 8 0 12 5 9 10 -3 6 -10 10 -16 10 -5 0
-9 -4 -9 -10z"/>
<path d="M4315 3539 c-10 -15 0 -21 27 -17 l23 3 -22 13 c-15 8 -24 9 -28 1z"/>
<path d="M1045 3480 c-3 -6 1 -13 10 -16 19 -8 30 0 20 15 -8 14 -22 14 -30 1z"/>
<path d="M3432 3475 c-7 -8 -9 -15 -4 -15 5 0 15 7 22 15 16 19 -1 19 -18 0z"/>
<path d="M4325 3471 c-7 -12 31 -25 45 -16 5 3 10 10 10 16 0 12 -47 12 -55 0z"/>
<path d="M3625 3450 c3 -5 11 -10 16 -10 6 0 7 5 4 10 -3 6 -11 10 -16 10 -6
0 -7 -4 -4 -10z"/>
<path d="M800 3440 c0 -5 5 -10 10 -10 6 0 10 5 10 10 0 6 -4 10 -10 10 -5 0
-10 -4 -10 -10z"/>
<path d="M3381 3436 c-7 -8 -11 -21 -9 -28 2 -8 -14 -31 -34 -51 -24 -24 -38
-47 -38 -63 0 -14 4 -22 10 -19 6 3 10 10 10 15 0 22 91 93 113 88 7 -2 14 2
15 7 2 6 -7 13 -20 16 -16 4 -22 12 -21 27 3 25 -9 29 -26 8z"/>
<path d="M998 3363 c7 -3 16 -2 19 1 4 3 -2 6 -13 5 -11 0 -14 -3 -6 -6z"/>
<path d="M2148 3354 c-5 -4 -8 -25 -8 -48 0 -28 3 -37 11 -29 6 6 9 27 7 48
-2 20 -6 33 -10 29z"/>
<path d="M1436 3325 c4 -8 8 -15 10 -15 2 0 4 7 4 15 0 8 -4 15 -10 15 -5 0
-7 -7 -4 -15z"/>
<path d="M3430 3330 c-12 -8 -10 -10 8 -10 13 0 20 4 17 10 -7 12 -6 12 -25 0z"/>
<path d="M1113 3323 c9 -2 23 -2 30 0 6 3 -1 5 -18 5 -16 0 -22 -2 -12 -5z"/>
<path d="M653 3294 c-8 -21 13 -42 28 -27 13 13 5 43 -11 43 -6 0 -13 -7 -17
-16z"/>
<path d="M1913 3270 c0 -22 3 -37 8 -35 4 3 12 -2 17 -11 7 -13 10 -8 15 20 7
46 0 66 -23 66 -14 0 -17 -9 -17 -40z"/>
<path d="M570 3280 c0 -11 7 -23 15 -26 8 -4 15 -14 15 -23 0 -21 10 -32 21
-25 5 3 4 14 -1 25 -9 15 -7 21 5 25 22 9 19 27 -4 19 -12 -3 -21 0 -25 10 -8
22 -26 18 -26 -5z"/>
<path d="M1380 3275 c0 -8 12 -22 28 -32 15 -10 30 -22 34 -28 5 -6 8 -6 8 0
0 10 -57 75 -66 75 -2 0 -4 -7 -4 -15z"/>
<path d="M995 3271 c-7 -12 -3 -14 42 -15 18 -1 33 2 33 7 0 4 -9 7 -19 7 -11
0 -26 3 -34 6 -8 3 -18 1 -22 -5z"/>
<path d="M1470 3271 c0 -5 7 -14 15 -21 8 -7 15 -19 15 -28 0 -8 3 -13 6 -9 8
7 -18 67 -28 67 -5 0 -8 -4 -8 -9z"/>
<path d="M2580 3253 c0 -12 3 -29 6 -38 6 -14 8 -14 25 1 22 20 26 49 5 41 -7
-3 -19 0 -25 6 -8 8 -11 5 -11 -10z"/>
<path d="M800 3236 c0 -16 28 -42 36 -33 8 7 -14 47 -26 47 -6 0 -10 -6 -10
-14z"/>
<path d="M1575 3240 c-3 -5 -1 -10 4 -10 6 0 11 5 11 10 0 6 -2 10 -4 10 -3 0
-8 -4 -11 -10z"/>
<path d="M998 3233 c-13 -3 -18 -15 -18 -43 0 -39 15 -60 30 -44 11 13 23 94
13 93 -4 -1 -16 -3 -25 -6z"/>
<path d="M2375 3210 c-3 -5 -1 -10 4 -10 6 0 11 5 11 10 0 6 -2 10 -4 10 -3 0
-8 -4 -11 -10z"/>
<path d="M3223 3210 c-19 -8 -33 -30 -20 -30 8 0 67 32 67 36 0 6 -23 4 -47
-6z"/>
<path d="M3331 3194 c-12 -15 -19 -30 -15 -33 3 -3 11 1 18 10 6 9 20 18 31
20 23 5 24 22 2 27 -8 2 -24 -9 -36 -24z"/>
<path d="M1170 3200 c0 -13 37 -50 50 -50 17 0 11 15 -13 38 -25 24 -37 28
-37 12z"/>
<path d="M1981 3164 c0 -11 3 -14 6 -6 3 7 2 16 -1 19 -3 4 -6 -2 -5 -13z"/>
<path d="M3090 3160 c0 -5 5 -10 10 -10 6 0 10 5 10 10 0 6 -4 10 -10 10 -5 0
-10 -4 -10 -10z"/>
<path d="M3150 3161 c0 -17 18 -21 24 -6 3 9 0 15 -9 15 -8 0 -15 -4 -15 -9z"/>
<path d="M2527 3154 c-8 -8 1 -24 14 -24 5 0 9 7 9 15 0 15 -12 20 -23 9z"/>
<path d="M1230 3124 c0 -6 5 -15 11 -21 6 -6 16 -21 23 -34 13 -26 36 -37 36
-17 0 8 -16 29 -35 48 -19 19 -35 29 -35 24z"/>
<path d="M1394 3110 c14 -48 28 -80 37 -80 14 0 -2 52 -24 80 l-19 25 6 -25z"/>
<path d="M3198 3113 c-21 -24 -30 -56 -22 -77 9 -23 23 -20 17 4 -3 10 5 35
17 55 22 36 15 48 -12 18z"/>
<path d="M640 3113 c1 -12 51 -46 57 -39 9 8 -27 46 -44 46 -7 0 -13 -3 -13
-7z"/>
<path d="M1884 3099 c-15 -17 -16 -22 -4 -29 17 -11 25 -4 35 28 8 28 -6 28
-31 1z"/>
<path d="M2535 3110 c-3 -5 -1 -10 4 -10 6 0 11 5 11 10 0 6 -2 10 -4 10 -3 0
-8 -4 -11 -10z"/>
<path d="M1701 3094 c0 -11 3 -14 6 -6 3 7 2 16 -1 19 -3 4 -6 -2 -5 -13z"/>
<path d="M882 3084 c3 -17 21 -21 26 -6 1 5 -4 12 -13 16 -11 4 -15 1 -13 -10z"/>
<path d="M1100 3083 c0 -5 14 -17 30 -28 16 -11 30 -23 30 -27 0 -5 7 -8 15
-8 12 0 9 9 -12 35 -25 31 -63 48 -63 28z"/>
<path d="M1350 3063 c0 -5 5 -15 10 -23 8 -12 10 -11 10 8 0 12 -4 22 -10 22
-5 0 -10 -3 -10 -7z"/>
<path d="M1495 3061 c-3 -5 -1 -12 5 -16 5 -3 10 1 10 9 0 18 -6 21 -15 7z"/>
<path d="M1837 3054 c-10 -11 -8 -54 2 -54 14 0 25 40 14 51 -5 5 -12 6 -16 3z"/>
<path d="M2850 3039 c0 -5 5 -7 10 -4 6 3 10 8 10 11 0 2 -4 4 -10 4 -5 0 -10
-5 -10 -11z"/>
<path d="M1040 3017 c1 -17 37 -63 45 -56 8 9 -15 57 -31 63 -8 3 -14 0 -14
-7z"/>
<path d="M1454 3004 c3 -9 9 -26 12 -39 3 -13 12 -26 20 -29 8 -3 14 -20 14
-41 0 -23 4 -34 10 -30 6 4 8 16 5 28 -13 46 -50 127 -59 127 -4 0 -5 -7 -2
-16z"/>
<path d="M1779 2993 c-6 -16 -13 -52 -14 -81 -3 -44 -1 -52 9 -43 11 9 15 6
20 -14 11 -43 30 -23 39 39 6 46 5 66 -8 92 -19 41 -32 43 -46 7z"/>
<path d="M2090 3011 c0 -5 7 -11 15 -15 8 -3 15 -1 15 3 0 5 -7 11 -15 15 -8
3 -15 1 -15 -3z"/>
<path d="M1540 2989 c0 -11 4 -18 10 -14 5 3 7 12 3 20 -7 21 -13 19 -13 -6z"/>
<path d="M2836 2991 c-4 -7 -5 -15 -2 -18 9 -9 19 4 14 18 -4 11 -6 11 -12 0z"/>
<path d="M980 2979 c0 -5 5 -7 10 -4 6 3 10 8 10 11 0 2 -4 4 -10 4 -5 0 -10
-5 -10 -11z"/>
<path d="M2735 2983 c-19 -3 -55 -53 -55 -74 0 -5 14 -3 30 6 18 9 30 23 30
35 0 11 7 20 15 20 8 0 15 5 15 10 0 6 -3 9 -7 9 -5 -1 -17 -4 -28 -6z"/>
<path d="M1415 2960 c3 -5 8 -10 11 -10 2 0 4 5 4 10 0 6 -5 10 -11 10 -5 0
-7 -4 -4 -10z"/>
<path d="M805 2939 c10 -32 30 -53 44 -45 18 11 13 23 -20 47 l-31 22 7 -24z"/>
<path d="M857 2953 c-2 -5 2 -19 8 -31 15 -27 30 -13 20 18 -6 20 -20 26 -28
13z"/>
<path d="M2380 2943 c0 -13 5 -23 10 -23 13 0 13 11 0 30 -8 12 -10 11 -10 -7z"/>
<path d="M2450 2953 c0 -4 5 -15 10 -23 8 -13 10 -13 10 2 0 9 -4 20 -10 23
-5 3 -10 3 -10 -2z"/>
<path d="M940 2943 c1 -5 12 -21 25 -38 23 -27 25 -28 25 -9 0 12 -11 29 -25
38 -14 9 -25 13 -25 9z"/>
<path d="M2100 2924 c0 -8 5 -12 10 -9 6 3 10 10 10 16 0 5 -4 9 -10 9 -5 0
-10 -7 -10 -16z"/>
<path d="M2841 2924 c0 -11 3 -14 6 -6 3 7 2 16 -1 19 -3 4 -6 -2 -5 -13z"/>
<path d="M3595 2900 c3 -5 27 -10 53 -10 34 0 43 3 32 10 -20 13 -93 13 -85 0z"/>
<path d="M2360 2884 c0 -8 5 -12 10 -9 6 3 10 10 10 16 0 5 -4 9 -10 9 -5 0
-10 -7 -10 -16z"/>
<path d="M700 2880 c0 -5 5 -10 10 -10 6 0 10 5 10 10 0 6 -4 10 -10 10 -5 0
-10 -4 -10 -10z"/>
<path d="M2140 2870 c0 -13 5 -18 15 -14 8 4 15 12 15 20 0 8 -7 14 -15 14 -8
0 -15 -9 -15 -20z"/>
<path d="M2257 2878 c-2 -7 -1 -22 4 -33 6 -16 8 -14 8 13 1 33 -4 41 -12 20z"/>
<path d="M1860 2860 c0 -11 4 -20 9 -20 6 0 9 -31 9 -69 -1 -56 2 -73 20 -96
12 -15 19 -32 16 -37 -7 -11 35 -120 50 -130 6 -4 14 -8 19 -8 11 0 8 38 -4
46 -6 3 -9 18 -6 33 3 14 0 40 -7 56 -33 77 -35 84 -26 117 5 18 6 49 1 68 -6
29 -11 34 -29 32 -13 -2 -25 3 -28 12 -9 23 -24 20 -24 -4z"/>
<path d="M2387 2855 c-12 -17 -16 -39 -15 -75 1 -28 5 -53 9 -56 6 -4 34 145
27 151 -1 2 -11 -8 -21 -20z"/>
<path d="M2733 2865 c-8 -13 -8 -24 1 -37 8 -15 8 -21 -3 -27 -16 -10 -6 -31
14 -31 17 0 45 27 45 43 0 7 -11 25 -24 41 -21 28 -24 28 -33 11z"/>
<path d="M3135 2850 c-3 -5 -1 -10 4 -10 6 0 11 5 11 10 0 6 -2 10 -4 10 -3 0
-8 -4 -11 -10z"/>
<path d="M932 2825 c6 -14 14 -25 18 -25 4 0 5 11 2 25 -2 14 -10 25 -18 25
-11 0 -11 -5 -2 -25z"/>
<path d="M3218 2843 c7 -3 16 -2 19 1 4 3 -2 6 -13 5 -11 0 -14 -3 -6 -6z"/>
<path d="M3007 2823 c-4 -3 -7 -11 -7 -17 0 -6 5 -5 12 2 6 6 9 14 7 17 -3 3
-9 2 -12 -2z"/>
<path d="M2230 2790 c0 -6 7 -10 15 -10 8 0 15 2 15 4 0 2 -7 6 -15 10 -8 3
-15 1 -15 -4z"/>
<path d="M3448 2783 c7 -3 16 -2 19 1 4 3 -2 6 -13 5 -11 0 -14 -3 -6 -6z"/>
<path d="M4127 2761 c-3 -14 -1 -18 9 -14 8 3 14 11 14 19 0 21 -17 17 -23 -5z"/>
<path d="M1175 2760 c3 -5 10 -10 16 -10 5 0 9 5 9 10 0 6 -7 10 -16 10 -8 0
-12 -4 -9 -10z"/>
<path d="M1645 2724 c4 -42 2 -53 -11 -58 -10 -4 -14 -13 -11 -26 3 -12 -1
-24 -11 -29 -15 -9 -15 -13 -4 -32 10 -15 11 -24 3 -32 -6 -6 -11 -20 -11 -30
0 -11 -7 -25 -16 -32 -15 -11 -15 -14 0 -38 17 -26 77 -67 98 -67 6 0 8 17 3
48 -4 34 -2 56 9 77 20 38 20 64 1 71 -8 4 -15 10 -15 16 0 5 5 6 10 3 6 -3
14 -4 19 0 12 7 -7 65 -20 65 -5 0 -9 13 -9 29 0 17 -5 33 -11 36 -6 4 -15 17
-20 29 -7 15 -8 7 -4 -30z"/>
<path d="M1400 2754 c0 -3 5 -14 11 -25 11 -22 31 -17 23 6 -5 13 -34 30 -34
19z"/>
<path d="M3100 2750 c0 -5 9 -10 20 -10 11 0 20 5 20 10 0 6 -9 10 -20 10 -11
0 -20 -4 -20 -10z"/>
<path d="M2776 2735 c4 -8 2 -15 -3 -15 -14 0 -48 -62 -49 -90 0 -14 -2 -31
-5 -39 -2 -7 1 -15 7 -18 11 -4 39 45 35 61 -1 5 5 23 12 40 27 56 30 76 13
76 -10 0 -13 -6 -10 -15z"/>
<path d="M1210 2725 c0 -8 13 -27 28 -42 16 -16 32 -40 36 -55 4 -20 13 -28
27 -28 12 0 32 -9 46 -20 33 -26 43 -25 43 2 0 25 -59 118 -75 118 -6 0 -17
-6 -24 -12 -10 -11 -18 -7 -40 20 -30 35 -41 40 -41 17z"/>
<path d="M2128 2708 c-19 -24 -22 -37 -12 -63 5 -12 11 -6 25 25 28 63 22 82
-13 38z"/>
<path d="M2320 2704 c0 -14 4 -23 10 -19 6 3 10 15 10 26 0 10 -4 19 -10 19
-5 0 -10 -12 -10 -26z"/>
<path d="M3493 2718 c2 -7 10 -13 17 -13 7 0 15 6 18 13 2 7 -5 12 -18 12 -13
0 -20 -5 -17 -12z"/>
<path d="M2216 2683 c-4 -9 -2 -21 4 -27 7 -7 10 -2 10 17 0 31 -5 34 -14 10z"/>
<path d="M3580 2682 c0 -14 11 -21 26 -15 21 8 17 23 -6 23 -11 0 -20 -4 -20
-8z"/>
<path d="M915 2670 c-3 -5 -1 -10 4 -10 6 0 11 5 11 10 0 6 -2 10 -4 10 -3 0
-8 -4 -11 -10z"/>
<path d="M2182 2650 c0 -14 2 -19 5 -12 2 6 2 18 0 25 -3 6 -5 1 -5 -13z"/>
<path d="M2546 2619 c-11 -22 -35 -49 -53 -60 -18 -12 -40 -34 -48 -50 -17
-32 -25 -35 -43 -17 -18 18 -30 0 -48 -71 -13 -51 -14 -64 -3 -77 11 -13 10
-18 -4 -25 -20 -12 -22 -29 -4 -29 13 0 39 42 51 83 4 13 12 16 25 12 15 -4
23 3 38 32 10 22 24 37 33 36 8 -2 22 10 31 26 9 16 30 35 45 43 18 8 30 23
32 37 5 31 28 57 35 38 6 -17 41 4 45 28 3 15 -1 16 -38 10 -31 -5 -46 -3 -58
8 -16 14 -19 12 -36 -24z"/>
<path d="M2280 2636 c0 -9 5 -16 10 -16 6 0 10 4 10 9 0 6 -4 13 -10 16 -5 3
-10 -1 -10 -9z"/>
<path d="M3537 2633 c-16 -15 -7 -34 13 -28 18 6 19 3 14 -27 -4 -18 -15 -42
-25 -54 -22 -24 -25 -44 -5 -44 14 0 38 31 68 90 22 41 21 35 2 54 -16 16 -55
22 -67 9z"/>
<path d="M1084 2609 c-8 -13 13 -29 39 -29 21 0 14 15 -13 30 -13 7 -21 7 -26
-1z"/>
<path d="M1172 2608 c3 -7 13 -15 22 -16 12 -3 17 1 14 10 -3 7 -13 15 -22 16
-12 3 -17 -1 -14 -10z"/>
<path d="M2780 2610 c0 -5 5 -10 10 -10 6 0 10 5 10 10 0 6 -4 10 -10 10 -5 0
-10 -4 -10 -10z"/>
<path d="M988 2603 c7 -3 16 -2 19 1 4 3 -2 6 -13 5 -11 0 -14 -3 -6 -6z"/>
<path d="M336 2585 c-3 -8 -1 -15 4 -15 6 0 10 7 10 15 0 8 -2 15 -4 15 -2 0
-6 -7 -10 -15z"/>
<path d="M3315 2580 c3 -5 10 -10 16 -10 5 0 9 5 9 10 0 6 -7 10 -16 10 -8 0
-12 -4 -9 -10z"/>
<path d="M2276 2572 c-2 -4 -1 -14 3 -21 6 -10 10 -9 14 3 6 16 -8 32 -17 18z"/>
<path d="M1900 2555 c0 -8 5 -15 10 -15 6 0 10 7 10 15 0 8 -4 15 -10 15 -5 0
-10 -7 -10 -15z"/>
<path d="M2807 2564 c-8 -8 1 -24 14 -24 5 0 9 7 9 15 0 15 -12 20 -23 9z"/>
<path d="M2097 2553 c-4 -3 -7 -11 -7 -17 0 -6 5 -5 12 2 6 6 9 14 7 17 -3 3
-9 2 -12 -2z"/>
<path d="M2215 2527 c-4 -10 -5 -21 -1 -24 10 -10 18 4 13 24 -4 17 -4 17 -12
0z"/>
<path d="M3035 2530 c-3 -5 -1 -10 4 -10 6 0 11 5 11 10 0 6 -2 10 -4 10 -3 0
-8 -4 -11 -10z"/>
<path d="M2760 2514 c0 -8 5 -12 10 -9 6 3 10 10 10 16 0 5 -4 9 -10 9 -5 0
-10 -7 -10 -16z"/>
<path d="M2960 2518 c0 -8 7 -21 15 -28 19 -16 19 -1 0 24 -12 16 -15 17 -15
4z"/>
<path d="M3350 2510 c0 -5 7 -10 16 -10 8 0 12 5 9 10 -3 6 -10 10 -16 10 -5
0 -9 -4 -9 -10z"/>
<path d="M3725 2501 c-16 -10 -39 -28 -50 -40 -24 -28 -10 -39 40 -33 30 4 35
7 29 24 -3 10 1 30 10 43 20 30 11 31 -29 6z"/>
<path d="M740 2481 c0 -22 -51 -52 -57 -33 -6 17 -40 15 -47 -3 -3 -8 -17 -15
-31 -15 -23 0 -25 -3 -20 -22 11 -38 40 -72 68 -79 24 -6 26 -5 17 11 -6 10
-10 26 -10 35 0 14 6 16 28 10 15 -3 29 -11 30 -16 2 -5 15 -9 28 -9 13 0 24
-4 24 -10 0 -5 5 -10 10 -10 17 0 11 62 -7 75 -9 7 -13 17 -9 23 11 18 24 14
31 -8 3 -11 10 -20 15 -20 5 0 24 -15 42 -32 25 -25 42 -33 68 -33 39 0 51 15
23 30 -10 5 -32 20 -50 32 -17 13 -39 23 -47 23 -9 0 -16 4 -16 9 0 5 -20 21
-45 34 -40 23 -45 24 -45 8z"/>
<path d="M2080 2480 c0 -18 42 -52 57 -46 8 3 13 11 11 17 -5 14 -68 41 -68
29z"/>
<path d="M3890 2465 c0 -14 -4 -25 -10 -25 -5 0 -18 -8 -28 -17 -10 -10 -27
-23 -37 -29 -37 -21 -29 -35 17 -28 65 9 68 11 68 47 0 18 5 38 11 44 6 6 8
16 5 22 -12 19 -26 12 -26 -14z"/>
<path d="M1945 2470 c-3 -5 3 -10 15 -10 12 0 18 5 15 10 -3 6 -10 10 -15 10
-5 0 -12 -4 -15 -10z"/>
<path d="M3360 2460 c0 -5 4 -10 9 -10 6 0 13 5 16 10 3 6 -1 10 -9 10 -9 0
-16 -4 -16 -10z"/>
<path d="M2256 2445 c-3 -8 -1 -15 4 -15 6 0 10 7 10 15 0 8 -2 15 -4 15 -2 0
-6 -7 -10 -15z"/>
<path d="M1100 2435 c-36 -7 -58 -13 -49 -14 25 -2 50 -34 39 -51 -14 -21 -12
-33 3 -27 21 8 12 -52 -12 -74 -11 -10 -25 -19 -31 -19 -16 0 -30 -46 -30
-101 0 -63 43 -159 97 -216 23 -25 74 -60 119 -83 71 -36 86 -40 154 -40 99 0
124 -16 115 -71 -6 -35 -5 -39 14 -39 26 0 26 -2 1 -68 -24 -62 -48 -102 -72
-120 -10 -7 -18 -26 -18 -43 0 -23 4 -29 21 -29 15 0 19 -4 14 -19 -3 -11 -2
-22 4 -25 14 -9 2 -41 -23 -65 -17 -16 -21 -29 -18 -65 2 -26 8 -46 12 -46 12
0 41 49 35 60 -3 5 -1 12 5 15 15 9 45 87 41 104 -4 23 21 61 40 61 10 0 21 5
24 10 11 18 35 11 35 -10 0 -11 -7 -20 -15 -20 -18 0 -20 -21 -3 -38 34 -34
67 2 60 64 -3 34 -1 45 12 50 15 6 24 44 10 44 -3 0 -19 -11 -36 -25 -16 -14
-38 -25 -49 -25 -10 0 -19 -4 -19 -9 0 -5 -9 -12 -20 -15 -11 -3 -29 -9 -40
-12 -29 -8 -26 23 3 47 28 21 73 146 87 240 5 35 16 95 25 134 36 157 -19 332
-137 439 -62 56 -131 100 -142 89 -3 -4 -16 -1 -29 5 -35 17 -156 21 -227 7z
m253 -74 c15 -6 27 -14 27 -19 0 -15 -40 -41 -55 -36 -24 9 -105 -75 -105
-110 0 -21 4 -27 15 -22 11 4 15 -2 15 -24 0 -17 5 -30 10 -30 6 0 10 -8 10
-18 0 -10 11 -29 24 -42 19 -17 32 -21 53 -16 15 4 35 8 44 9 9 1 36 26 59 56
40 51 42 56 37 103 -6 50 -6 50 16 35 12 -8 37 -43 55 -77 31 -58 33 -68 27
-122 -6 -52 -12 -63 -53 -103 -35 -35 -53 -45 -78 -45 -18 0 -34 -5 -36 -11
-3 -8 -14 -8 -43 0 -22 6 -50 11 -62 11 -29 0 -100 49 -142 98 -45 53 -81 159
-71 210 11 58 41 112 67 118 12 3 25 14 28 24 3 10 14 21 23 23 27 7 105 0
135 -12z m84 -37 c-3 -3 -12 -4 -19 -1 -8 3 -5 6 6 6 11 1 17 -2 13 -5z m-97
-62 c0 -14 -11 -21 -26 -15 -21 8 -17 23 6 23 11 0 20 -4 20 -8z m75 -2 c3 -5
1 -10 -4 -10 -6 0 -11 5 -11 10 0 6 2 10 4 10 3 0 8 -4 11 -10z m-19 -39 c-3
-4 5 -13 17 -20 19 -10 22 -19 19 -52 -3 -31 -9 -40 -28 -45 -31 -8 -71 2 -95
25 -18 16 -18 19 -4 31 8 7 13 21 10 30 -7 21 11 37 45 42 29 5 43 0 36 -11z
m-346 -23 c0 -18 -2 -20 -9 -8 -6 8 -7 18 -5 22 9 14 14 9 14 -14z m520 -313
c-21 -35 -52 -50 -86 -43 -14 2 -3 15 41 49 33 25 61 42 63 37 2 -4 -6 -24
-18 -43z m-220 -21 c0 -11 -5 -14 -16 -10 -9 3 -18 6 -20 6 -3 0 -2 5 1 10 10
16 35 12 35 -6z"/>
<path d="M2692 2429 c-7 -12 -11 -23 -8 -26 7 -7 36 23 36 36 0 18 -14 13 -28
-10z"/>
<path d="M4000 2439 c0 -5 5 -7 10 -4 6 3 10 8 10 11 0 2 -4 4 -10 4 -5 0 -10
-5 -10 -11z"/>
<path d="M2802 2393 c-12 -19 -21 -37 -19 -40 8 -7 37 9 37 22 0 7 7 18 15 25
18 15 20 30 3 30 -7 -1 -23 -17 -36 -37z"/>
<path d="M3610 2405 c-7 -9 -10 -19 -6 -22 8 -9 38 9 44 25 5 17 -23 15 -38
-3z"/>
<path d="M2702 2387 c-6 -6 -13 -24 -17 -40 -4 -15 -11 -27 -16 -27 -13 0 -11
24 2 37 13 13 3 36 -12 28 -11 -7 -59 -107 -59 -123 0 -6 -9 -17 -20 -25 -12
-8 -20 -18 -19 -23 1 -5 -6 -26 -15 -48 -9 -21 -15 -40 -12 -43 19 -19 93 35
146 107 14 18 36 45 48 58 20 21 22 29 13 49 -6 13 -11 33 -11 43 0 23 -13 26
-28 7z"/>
<path d="M1996 2361 c-4 -7 -5 -15 -2 -18 9 -9 19 4 14 18 -4 11 -6 11 -12 0z"/>
<path d="M540 2345 c0 -8 5 -15 10 -15 6 0 10 7 10 15 0 8 -4 15 -10 15 -5 0
-10 -7 -10 -15z"/>
<path d="M2097 2328 c-7 -25 0 -41 14 -33 12 8 12 55 0 55 -5 0 -11 -10 -14
-22z"/>
<path d="M1875 2329 c-11 -17 -34 -123 -29 -131 12 -20 24 -5 24 31 0 25 5 41
15 45 9 3 15 18 15 36 0 30 -13 40 -25 19z"/>
<path d="M3925 2320 c-15 -17 -16 -20 -3 -20 19 0 42 26 30 34 -5 3 -17 -3
-27 -14z"/>
<path d="M571 2327 c2 -1 12 -9 22 -16 15 -12 17 -12 11 3 -3 9 -13 16 -22 16
-8 0 -13 -1 -11 -3z"/>
<path d="M3305 2319 c-11 -17 1 -21 15 -4 8 9 8 15 2 15 -6 0 -14 -5 -17 -11z"/>
<path d="M2280 2285 c0 -22 2 -24 19 -13 15 9 17 15 9 25 -16 20 -28 15 -28
-12z"/>
<path d="M2990 2300 c0 -5 4 -10 9 -10 6 0 13 5 16 10 3 6 -1 10 -9 10 -9 0
-16 -4 -16 -10z"/>
<path d="M3815 2293 c-20 -15 -19 -15 5 -9 14 3 28 6 33 6 4 0 7 5 7 10 0 15
-22 12 -45 -7z"/>
<path d="M2150 2291 c0 -6 5 -13 10 -16 6 -3 10 1 10 9 0 9 -4 16 -10 16 -5 0
-10 -4 -10 -9z"/>
<path d="M544 2277 c17 -13 18 -14 2 -20 -19 -8 -13 -27 8 -27 15 0 25 27 19
48 -3 6 -14 12 -26 12 -20 0 -20 -1 -3 -13z"/>
<path d="M3730 2265 c-15 -8 -19 -14 -10 -15 28 0 60 12 54 21 -7 12 -14 11
-44 -6z"/>
<path d="M3023 2243 c-7 -2 -13 -12 -14 -21 0 -11 -2 -12 -6 -4 -2 6 -20 12
-39 12 -20 0 -34 -5 -34 -12 0 -7 -13 -22 -29 -33 -16 -10 -27 -23 -25 -27 8
-12 72 -10 80 3 4 7 22 9 50 4 37 -5 44 -3 54 15 6 12 10 23 8 24 -2 2 -12 8
-23 14 -19 10 -19 11 5 21 21 8 22 10 5 10 -11 -1 -26 -3 -32 -6z"/>
<path d="M3160 2234 c0 -8 5 -12 10 -9 6 3 10 10 10 16 0 5 -4 9 -10 9 -5 0
-10 -7 -10 -16z"/>
<path d="M3536 2239 c3 -6 15 -9 25 -6 10 3 22 1 25 -4 8 -14 24 -10 24 6 0
11 -11 15 -41 15 -26 0 -38 -4 -33 -11z"/>
<path d="M757 2194 c-4 -4 -7 -15 -7 -25 0 -10 -6 -19 -14 -21 -13 -3 -13 -6
-1 -22 12 -16 17 -17 30 -6 12 10 19 10 27 2 14 -14 38 -16 38 -3 0 5 -9 12
-19 16 -14 4 -19 14 -18 33 2 26 -20 42 -36 26z"/>
<path d="M810 2180 c0 -5 7 -10 15 -10 8 0 15 5 15 10 0 6 -7 10 -15 10 -8 0
-15 -4 -15 -10z"/>
<path d="M362 2172 c-20 -13 42 -52 83 -52 46 0 42 21 -6 33 -19 5 -38 13 -43
18 -12 11 -17 11 -34 1z"/>
<path d="M1837 2154 c-13 -13 -7 -24 14 -24 11 0 19 5 17 12 -5 14 -22 21 -31
12z"/>
<path d="M2328 2140 c-10 -9 -18 -22 -18 -28 0 -7 -5 -21 -12 -31 -14 -24 -3
-53 19 -49 18 3 36 65 31 104 -3 20 -4 20 -20 4z"/>
<path d="M3520 2135 c0 -13 4 -14 20 -5 11 6 20 13 20 15 0 3 -9 5 -20 5 -11
0 -20 -7 -20 -15z"/>
<path d="M2860 2130 c0 -5 7 -10 15 -10 8 0 15 5 15 10 0 6 -7 10 -15 10 -8 0
-15 -4 -15 -10z"/>
<path d="M3618 2123 c-17 -21 -1 -43 31 -43 22 0 29 4 25 14 -4 10 5 16 25 21
17 4 29 10 26 15 -8 13 -95 7 -107 -7z"/>
<path d="M347 2104 c-11 -11 3 -24 25 -24 17 0 18 2 8 15 -13 16 -23 19 -33 9z"/>
<path d="M857 2093 c-10 -18 6 -84 23 -93 11 -6 16 -17 13 -33 -4 -19 1 -26
26 -36 29 -13 51 -9 51 9 0 5 -8 11 -18 15 -11 3 -25 23 -32 45 -7 22 -19 45
-27 51 -7 6 -13 17 -13 25 0 15 -17 28 -23 17z"/>
<path d="M1815 2090 c-3 -6 -5 -33 -4 -61 2 -35 -1 -53 -11 -59 -8 -5 -20 -33
-26 -62 -7 -29 -15 -64 -19 -77 -8 -22 -6 -23 26 -16 48 10 68 40 67 98 0 33
5 54 17 67 10 11 13 20 8 20 -6 0 -15 21 -19 47 -9 45 -26 65 -39 43z"/>
<path d="M2715 2034 c-87 -21 -183 -77 -260 -151 -74 -71 -107 -127 -131 -222
-8 -31 -21 -65 -28 -76 -8 -12 -17 -47 -20 -80 -3 -32 -13 -66 -21 -75 -19
-21 -19 -74 0 -90 9 -7 13 -21 10 -30 -3 -9 1 -23 9 -29 19 -16 32 8 35 64 1
21 7 45 12 52 6 6 9 29 7 50 -2 33 0 38 18 38 11 0 31 13 45 28 l24 28 58 -31
c70 -36 176 -55 270 -47 75 7 178 53 204 94 9 13 20 23 27 23 12 0 30 25 59
83 16 34 17 41 4 55 -19 23 -27 59 -20 94 4 23 8 26 20 17 10 -9 17 -9 25 -1
13 13 2 32 -18 32 -15 0 -44 23 -44 34 0 3 7 6 15 6 8 0 15 -4 15 -10 0 -5 9
-10 21 -10 14 0 19 5 16 14 -3 8 -1 17 6 20 18 7 -51 63 -103 83 -25 9 -50 20
-55 24 -13 9 -172 20 -200 13z m165 -64 c0 -5 10 -12 23 -16 31 -9 51 -33 76
-89 21 -47 21 -103 1 -130 -4 -5 -10 -22 -14 -37 -7 -30 -129 -138 -155 -138
-33 0 -96 -29 -99 -44 -5 -25 -22 -19 -22 9 0 28 0 28 -34 15 -17 -6 -24 -14
-20 -25 4 -9 1 -15 -8 -15 -8 0 -14 10 -13 28 0 20 -5 28 -22 30 -14 2 -23 11
-25 25 -2 15 -9 21 -23 19 -45 -5 -83 106 -54 161 10 18 8 23 -10 35 -24 16
-29 37 -7 29 9 -4 13 -1 11 6 -10 29 105 113 178 131 38 9 34 1 -13 -29 -23
-14 -38 -30 -35 -36 4 -5 2 -15 -3 -22 -16 -19 10 -119 40 -159 20 -26 37 -37
67 -42 21 -3 42 -12 44 -18 3 -8 6 -5 6 6 1 14 7 17 26 14 21 -4 29 2 54 41
26 41 28 51 21 91 -11 65 -46 130 -70 130 -11 0 -20 4 -20 9 0 5 -3 17 -7 27
-5 15 -2 16 25 11 17 -4 34 -2 37 3 7 12 45 -5 45 -20z m-150 -60 c0 -5 -9
-10 -20 -10 -11 0 -20 5 -20 10 0 6 9 10 20 10 11 0 20 -4 20 -10z m20 -40 c0
-5 -5 -10 -11 -10 -5 0 -7 5 -4 10 3 6 8 10 11 10 2 0 4 -4 4 -10z m50 -16 c0
-8 -4 -12 -10 -9 -5 3 -10 10 -10 16 0 5 5 9 10 9 6 0 10 -7 10 -16z m-50 -15
c42 -22 51 -42 25 -56 -13 -7 -13 -13 -3 -35 7 -15 22 -29 33 -32 16 -4 17 -8
7 -18 -10 -10 -17 -10 -32 0 -11 6 -25 12 -31 12 -15 0 -39 26 -39 44 0 8 -10
16 -22 18 -17 2 -24 11 -26 34 -3 28 10 42 45 53 1 1 21 -8 43 -20z m-326 -90
c9 -17 14 -35 11 -39 -11 -18 52 -127 77 -134 10 -2 18 -9 18 -15 0 -23 -29
-22 -67 1 -21 13 -48 28 -58 34 -16 9 -21 24 -23 69 -3 48 11 115 23 115 2 0
11 -14 19 -31z"/>
<path d="M2746 1811 c-4 -7 -5 -15 -2 -18 9 -9 19 4 14 18 -4 11 -6 11 -12 0z"/>
<path d="M2255 1963 c-15 -30 -19 -33 -27 -20 -23 41 -56 5 -36 -39 10 -20 8
-30 -6 -55 -9 -16 -15 -33 -11 -38 3 -5 1 -12 -5 -16 -15 -9 -12 -51 5 -65 18
-15 20 -31 3 -27 -7 1 -13 -4 -12 -10 1 -7 2 -22 3 -33 2 -29 21 -25 21 5 0
14 4 33 9 43 13 26 31 86 31 105 0 20 46 113 68 139 16 20 10 48 -12 48 -7 0
-22 -16 -31 -37z"/>
<path d="M650 1974 c0 -17 22 -14 28 4 2 7 -3 12 -12 12 -9 0 -16 -7 -16 -16z"/>
<path d="M799 1976 c13 -16 60 -30 69 -21 9 9 -32 34 -57 35 -19 0 -21 -3 -12
-14z"/>
<path d="M750 1902 c0 -14 23 -32 42 -32 24 0 23 17 -1 30 -23 12 -41 13 -41
2z"/>
<path d="M980 1904 c0 -9 43 -54 53 -54 16 0 5 17 -23 38 -16 13 -30 20 -30
16z"/>
<path d="M3488 1903 c6 -2 18 -2 25 0 6 3 1 5 -13 5 -14 0 -19 -2 -12 -5z"/>
<path d="M842 1848 c6 -18 28 -21 28 -4 0 9 -7 16 -16 16 -9 0 -14 -5 -12 -12z"/>
<path d="M896 1831 c-4 -5 3 -15 15 -21 28 -15 34 -7 10 14 -12 11 -21 13 -25
7z"/>
<path d="M615 1790 c-3 -5 3 -10 14 -10 12 0 21 5 21 10 0 6 -6 10 -14 10 -8
0 -18 -4 -21 -10z"/>
<path d="M730 1770 c0 -5 10 -15 22 -21 12 -7 29 -21 38 -32 16 -19 90 -50 99
-41 9 8 -52 54 -81 60 -15 4 -35 15 -44 25 -19 21 -34 25 -34 9z"/>
<path d="M3130 1755 c0 -18 43 -52 75 -59 17 -4 47 -7 68 -6 28 1 37 -3 37
-15 0 -10 7 -16 18 -14 44 4 60 -14 22 -26 -26 -8 -16 -25 15 -25 12 0 25 -6
28 -13 5 -14 70 -16 99 -3 9 4 19 19 23 34 5 20 1 30 -16 43 -18 13 -21 20
-12 31 13 15 0 48 -13 35 -4 -4 -13 -2 -20 4 -8 6 -25 8 -39 5 -20 -5 -25 -13
-25 -36 0 -24 -4 -30 -22 -30 -21 0 -21 1 -3 14 18 13 18 14 -3 25 -12 6 -22
21 -22 31 0 23 -12 25 -39 8 -14 -8 -39 -9 -95 -2 -55 7 -76 7 -76 -1z m346
-120 c-8 -8 -29 -15 -47 -15 -31 0 -32 1 -13 15 10 8 32 15 47 15 25 0 27 -2
13 -15z"/>
<path d="M886 1752 c-6 -10 41 -38 49 -30 3 3 3 13 -1 22 -6 17 -39 22 -48 8z"/>
<path d="M567 1714 c-14 -14 -6 -24 19 -24 21 0 24 -3 15 -14 -6 -7 -8 -21 -5
-30 9 -23 54 -40 68 -26 5 5 20 10 33 10 27 0 30 15 7 28 -11 6 -13 12 -6 16
19 11 1 36 -25 36 -18 0 -24 -4 -19 -15 3 -9 0 -15 -9 -15 -8 0 -15 4 -15 9 0
5 -8 11 -17 15 -10 3 -23 8 -29 11 -5 3 -13 2 -17 -1z"/>
<path d="M1783 1633 c-26 -10 -12 -24 17 -18 19 4 37 2 46 -6 17 -14 29 -6 21
16 -6 15 -56 20 -84 8z"/>
<path d="M730 1622 c0 -15 41 -42 63 -41 21 0 21 1 -3 12 -14 6 -29 17 -33 24
-9 14 -27 18 -27 5z"/>
<path d="M496 1601 c-3 -5 0 -11 8 -14 15 -6 26 1 26 15 0 11 -27 10 -34 -1z"/>
<path d="M2035 1558 c-4 -18 -12 -38 -17 -45 -7 -8 -4 -20 8 -36 15 -20 22
-22 41 -13 25 12 29 24 11 31 -7 3 -14 22 -16 42 -3 51 -18 63 -27 21z"/>
<path d="M3340 1580 c0 -5 7 -7 15 -4 8 4 15 8 15 10 0 2 -7 4 -15 4 -8 0 -15
-4 -15 -10z"/>
<path d="M3180 1535 c-10 -12 -9 -15 8 -15 11 0 22 7 26 15 3 9 0 15 -8 15 -7
0 -19 -7 -26 -15z"/>
<path d="M3440 1535 c7 -8 16 -15 21 -15 5 0 9 7 9 15 0 9 -9 15 -21 15 -18 0
-19 -2 -9 -15z"/>
<path d="M3121 1511 c-14 -4 -32 -20 -41 -36 -9 -17 -27 -35 -40 -42 -20 -10
-14 -12 46 -15 78 -4 160 13 156 32 -1 7 5 18 15 25 29 21 7 29 -39 15 -58
-18 -64 -22 -44 -30 28 -10 19 -23 -17 -23 -61 0 -73 19 -27 45 17 9 30 22 30
28 0 11 -4 11 -39 1z"/>
<path d="M850 1500 c0 -5 6 -10 14 -10 8 0 18 5 21 10 3 6 -3 10 -14 10 -12 0
-21 -4 -21 -10z"/>
<path d="M3480 1484 c0 -8 5 -12 10 -9 6 4 8 11 5 16 -9 14 -15 11 -15 -7z"/>
<path d="M575 1470 c-3 -5 -1 -10 4 -10 6 0 11 5 11 10 0 6 -2 10 -4 10 -3 0
-8 -4 -11 -10z"/>
<path d="M1947 1449 c-9 -6 -17 -14 -17 -19 0 -17 27 -11 34 6 8 22 5 25 -17
13z"/>
<path d="M3406 1431 c-7 -11 22 -23 35 -15 5 3 7 10 4 15 -8 12 -32 12 -39 0z"/>
<path d="M770 1410 c0 -5 12 -10 26 -10 14 0 23 4 19 10 -3 6 -15 10 -26 10
-10 0 -19 -4 -19 -10z"/>
<path d="M2947 1414 c-14 -15 -6 -34 14 -34 14 0 19 5 17 17 -3 18 -20 27 -31
17z"/>
<path d="M985 1400 c3 -5 8 -10 11 -10 2 0 4 5 4 10 0 6 -5 10 -11 10 -5 0 -7
-4 -4 -10z"/>
<path d="M643 1383 c9 -2 23 -2 30 0 6 3 -1 5 -18 5 -16 0 -22 -2 -12 -5z"/>
<path d="M553 1366 c-18 -6 -33 -14 -33 -18 0 -14 67 -9 79 6 16 19 -5 25 -46
12z"/>
<path d="M2800 1371 c0 -5 9 -11 21 -14 16 -4 18 -3 8 9 -13 16 -29 19 -29 5z"/>
<path d="M3404 1367 c11 -7 30 -23 43 -36 17 -18 27 -21 34 -14 8 8 5 15 -12
24 -13 7 -30 18 -37 26 -7 7 -21 13 -30 12 -15 0 -14 -2 2 -12z"/>
<path d="M1595 1334 c-17 -13 -35 -22 -42 -19 -18 6 -22 -7 -14 -45 l8 -35 19
33 c10 17 26 34 34 37 18 6 42 42 32 49 -4 2 -21 -7 -37 -20z"/>
<path d="M2116 1343 c-3 -10 -2 -34 2 -53 6 -28 12 -35 32 -35 19 0 26 6 28
24 2 13 -1 28 -7 34 -6 6 -11 19 -11 29 0 24 -37 24 -44 1z"/>
<path d="M2608 1343 c7 -3 16 -2 19 1 4 3 -2 6 -13 5 -11 0 -14 -3 -6 -6z"/>
<path d="M655 1330 c-16 -7 -12 -9 18 -9 23 -1 36 3 32 9 -7 12 -23 12 -50 0z"/>
<path d="M3650 1320 c0 -5 5 -10 10 -10 6 0 10 5 10 10 0 6 -4 10 -10 10 -5 0
-10 -4 -10 -10z"/>
<path d="M773 1313 c3 -2 24 -9 46 -14 23 -5 50 -18 60 -28 22 -22 61 -18 61
6 0 11 5 13 18 8 35 -15 52 -17 69 -10 15 5 12 9 -15 21 -19 7 -43 13 -55 13
-12 0 -60 2 -106 5 -46 2 -81 2 -78 -1z"/>
<path d="M2995 1311 c-3 -5 -2 -12 2 -14 12 -8 63 4 63 14 0 12 -57 12 -65 0z"/>
<path d="M3112 1293 c-19 -8 -4 -23 24 -23 16 0 24 5 22 13 -5 13 -26 18 -46
10z"/>
<path d="M2377 1265 c-6 -22 -5 -32 7 -41 9 -6 16 -19 16 -28 0 -9 7 -16 15
-16 8 0 15 -5 15 -12 0 -8 3 -9 10 -2 15 15 3 39 -25 52 -17 8 -25 21 -27 44
l-3 33 -8 -30z"/>
<path d="M1810 1260 c0 -11 7 -20 15 -20 8 0 15 9 15 20 0 11 -7 20 -15 20 -8
0 -15 -9 -15 -20z"/>
<path d="M2955 1270 c-3 -5 -15 -10 -27 -10 -17 0 -18 -2 -8 -15 7 -8 19 -15
26 -15 8 0 14 7 14 15 0 9 9 15 23 15 18 0 19 2 7 10 -19 12 -27 12 -35 0z"/>
<path d="M2090 1262 c0 -4 -4 -24 -9 -44 -9 -37 -8 -38 18 -32 39 10 46 20 31
48 -12 24 -40 43 -40 28z"/>
<path d="M3041 1246 c-9 -11 -5 -15 21 -19 35 -5 54 4 44 22 -10 16 -51 14
-65 -3z"/>
<path d="M3404 1247 c-3 -9 -3 -21 1 -27 8 -12 55 -3 75 16 12 12 12 14 -5 14
-11 0 -30 3 -42 6 -16 4 -25 1 -29 -9z"/>
<path d="M778 1243 c7 -3 16 -2 19 1 4 3 -2 6 -13 5 -11 0 -14 -3 -6 -6z"/>
<path d="M2275 1230 c3 -5 8 -10 11 -10 2 0 4 5 4 10 0 6 -5 10 -11 10 -5 0
-7 -4 -4 -10z"/>
<path d="M728 1223 c7 -3 16 -2 19 1 4 3 -2 6 -13 5 -11 0 -14 -3 -6 -6z"/>
<path d="M897 1223 c-17 -36 30 -62 78 -43 17 7 24 14 18 17 -7 3 -13 11 -13
19 0 10 -12 14 -39 14 -22 0 -42 -3 -44 -7z"/>
<path d="M2978 1223 c7 -3 16 -2 19 1 4 3 -2 6 -13 5 -11 0 -14 -3 -6 -6z"/>
<path d="M565 1210 c-10 -16 -1 -22 40 -27 26 -3 35 0 35 12 0 8 -9 15 -19 15
-11 0 -26 3 -34 6 -8 3 -18 0 -22 -6z"/>
<path d="M1502 1212 c-10 -7 -10 -14 3 -38 8 -16 15 -38 15 -50 0 -26 46 -67
68 -60 9 3 30 -4 45 -17 l29 -22 -16 -45 c-10 -29 -12 -48 -6 -54 6 -6 10 -16
10 -23 0 -8 9 -24 21 -36 15 -17 20 -32 17 -66 -4 -58 12 -62 37 -9 12 25 29
45 40 47 11 2 32 12 47 22 20 15 26 27 25 56 0 21 -7 46 -15 56 -13 15 -13 17
0 17 8 0 18 -3 22 -7 3 -4 27 -8 51 -9 25 -2 55 -10 67 -19 36 -24 67 -19 86
15 9 17 28 33 42 36 14 3 33 8 42 10 10 3 19 -3 23 -16 3 -11 11 -20 17 -20 5
0 8 7 4 15 -3 8 1 18 8 22 11 6 12 22 7 68 l-8 60 -8 -42 c-6 -33 -14 -45 -41
-59 -25 -14 -36 -16 -45 -7 -15 15 -4 44 19 49 13 4 17 17 19 51 1 31 -1 42
-7 33 -5 -8 -19 -15 -32 -15 -19 0 -23 -5 -24 -35 -1 -63 -44 -111 -81 -92
-66 34 -156 14 -176 -39 -13 -34 -32 -37 -47 -9 -7 12 -21 20 -37 20 -25 0
-25 1 -9 19 15 16 16 22 4 43 -22 39 -81 98 -99 98 -12 0 -15 6 -11 25 4 21 1
25 -20 25 -13 0 -29 -5 -36 -12 -9 -9 -13 -7 -18 5 -7 19 -13 20 -32 9z m228
-307 c12 -15 7 -45 -8 -45 -20 0 -43 26 -36 43 8 21 27 22 44 2z"/>
<path d="M2580 1210 c-36 -5 -41 -8 -25 -14 36 -14 44 -15 50 -6 4 6 15 10 26
10 10 0 19 5 19 10 0 6 -6 9 -12 8 -7 0 -33 -4 -58 -8z"/>
<path d="M3480 1199 c0 -8 -12 -10 -35 -6 -43 7 -45 -4 -4 -22 27 -12 33 -12
40 0 9 15 12 39 4 39 -3 0 -5 -5 -5 -11z"/>
<path d="M2693 1193 c-7 -3 -13 -13 -13 -23 0 -22 -16 -35 -25 -20 -10 16 -22
12 -38 -14 -13 -20 -14 -29 -4 -50 13 -27 53 -54 64 -43 3 4 -2 13 -12 21 -19
14 -13 36 11 36 8 0 14 3 15 8 0 4 2 17 3 30 2 12 11 28 21 36 14 10 15 14 4
18 -8 3 -20 3 -26 1z"/>
<path d="M3510 1159 c0 -5 5 -7 10 -4 6 3 10 8 10 11 0 2 -4 4 -10 4 -5 0 -10
-5 -10 -11z"/>
<path d="M2973 1143 c-13 -2 -23 -10 -23 -17 0 -18 27 -39 38 -32 11 6 23 57
13 55 -3 -1 -16 -4 -28 -6z"/>
<path d="M3490 1130 c0 -5 5 -10 10 -10 6 0 10 5 10 10 0 6 -4 10 -10 10 -5 0
-10 -4 -10 -10z"/>
<path d="M893 1123 c-22 -8 -14 -23 11 -23 14 0 28 -4 31 -10 3 -5 -1 -10 -9
-10 -25 0 -18 -19 9 -26 l25 -6 -34 -33 -35 -33 37 0 c40 0 71 13 89 37 15 21
7 31 -23 31 -18 0 -25 5 -23 18 5 53 0 62 -33 61 -18 0 -39 -3 -45 -6z"/>
<path d="M1810 1115 c0 -10 10 -15 26 -15 22 0 25 2 14 15 -7 8 -19 15 -26 15
-8 0 -14 -7 -14 -15z"/>
<path d="M2240 1002 c0 -17 28 -34 52 -30 39 5 28 33 -14 36 -21 2 -38 -1 -38
-6z"/>
<path d="M2818 1003 c7 -3 16 -2 19 1 4 3 -2 6 -13 5 -11 0 -14 -3 -6 -6z"/>
<path d="M3120 990 c0 -11 5 -20 10 -20 6 0 13 -1 17 -2 3 -2 8 7 9 20 3 16
-1 22 -16 22 -13 0 -20 -7 -20 -20z"/>
<path d="M3172 993 c5 -25 31 -27 46 -3 11 18 10 20 -19 20 -24 0 -30 -4 -27
-17z"/>
<path d="M978 949 c-49 -36 -32 -61 26 -39 19 7 26 17 26 35 0 30 -16 31 -52
4z"/>
<path d="M3220 960 c0 -5 5 -10 11 -10 5 0 7 5 4 10 -3 6 -8 10 -11 10 -2 0
-4 -4 -4 -10z"/>
<path d="M2207 943 c-10 -9 -9 -51 1 -57 13 -8 30 7 41 37 10 25 8 27 -13 27
-12 0 -26 -3 -29 -7z"/>
<path d="M2409 929 c-9 -17 -7 -24 11 -41 11 -11 28 -17 36 -14 8 3 26 -2 40
-11 19 -12 28 -13 37 -4 8 8 7 11 -4 11 -20 0 -52 28 -68 58 -15 28 -37 28
-52 1z"/>
<path d="M2322 918 c3 -25 25 -33 47 -19 21 14 5 41 -24 41 -22 0 -26 -4 -23
-22z"/>
<path d="M1033 898 c-31 -15 -38 -39 -13 -45 11 -3 20 -14 20 -24 0 -10 9 -23
20 -29 11 -6 20 -18 20 -27 0 -13 3 -14 12 -5 7 7 20 12 30 12 11 0 18 7 18
20 0 12 -7 20 -16 20 -12 0 -15 7 -12 24 5 23 3 24 -31 19 -30 -5 -34 -3 -23
8 13 14 16 39 5 38 -5 0 -18 -5 -30 -11z"/>
<path d="M2619 821 c7 -11 23 -24 36 -27 14 -3 25 -12 25 -20 0 -8 7 -14 17
-14 14 0 14 2 -2 20 -14 16 -15 22 -5 35 11 13 9 15 -11 13 -13 -1 -35 2 -47
6 -22 7 -23 6 -13 -13z"/>
<path d="M1167 782 c-9 -2 -24 -16 -32 -32 l-15 -29 38 5 c73 10 83 14 80 32
-2 9 -10 17 -18 17 -8 0 -19 3 -25 6 -5 3 -18 4 -28 1z"/>
<path d="M2361 764 c0 -11 3 -14 6 -6 3 7 2 16 -1 19 -3 4 -6 -2 -5 -13z"/>
<path d="M2485 770 c-3 -5 -1 -10 4 -10 6 0 20 -9 31 -20 19 -19 70 -28 70
-12 0 7 -82 52 -95 52 -2 0 -7 -4 -10 -10z"/>
<path d="M1296 741 c-4 -6 -1 -13 6 -16 26 -8 200 -27 205 -22 11 11 -68 36
-135 43 -47 4 -72 3 -76 -5z"/>
<path d="M2795 735 c32 -14 41 -13 30 4 -3 6 -18 11 -33 10 l-27 -1 30 -13z"/>
<path d="M1662 728 c-18 -18 -15 -25 20 -37 37 -13 49 -5 37 27 -9 24 -38 29
-57 10z"/>
<path d="M1568 703 c-10 -2 -18 -9 -18 -14 0 -13 12 -11 34 6 20 15 16 17 -16
8z"/>
<path d="M2496 695 c9 -22 52 -47 60 -34 7 13 -1 21 -38 37 -22 9 -26 9 -22
-3z"/>
<path d="M2410 627 c0 -20 52 -75 78 -82 13 -4 22 -2 22 4 0 6 -4 11 -9 11 -4
0 -21 18 -36 40 -27 39 -55 53 -55 27z"/>
<path d="M2495 631 c-3 -5 -1 -12 5 -16 5 -3 10 1 10 9 0 18 -6 21 -15 7z"/>
<path d="M1812 618 c7 -20 48 -23 48 -4 0 11 -9 16 -26 16 -16 0 -24 -5 -22
-12z"/>
<path d="M1870 610 c0 -5 5 -10 10 -10 6 0 10 5 10 10 0 6 -4 10 -10 10 -5 0
-10 -4 -10 -10z"/>
<path d="M1912 588 c3 -7 16 -14 31 -16 14 -2 31 -10 37 -18 7 -8 25 -14 40
-14 16 0 30 -6 33 -12 2 -7 8 -10 12 -6 11 11 -36 47 -61 48 -12 0 -27 7 -34
15 -15 18 -63 20 -58 3z"/>
<path d="M2360 555 c0 -19 24 -35 39 -26 17 11 8 27 -19 34 -12 3 -20 0 -20
-8z"/>
<path d="M2292 535 c-5 -10 -23 -18 -43 -19 -26 -1 -35 -6 -37 -21 -4 -31 13
-51 31 -37 8 7 21 10 29 7 9 -4 18 1 21 9 4 9 18 16 32 16 32 0 31 25 -2 47
-19 13 -22 12 -31 -2z"/>
<path d="M2100 510 c0 -11 2 -20 4 -20 2 0 6 9 9 20 3 11 1 20 -4 20 -5 0 -9
-9 -9 -20z"/>
<path d="M2157 523 c-2 -5 4 -21 13 -37 17 -27 18 -27 25 -7 9 30 -24 68 -38
44z"/>
<path d="M2135 430 c-3 -5 -1 -10 4 -10 6 0 11 5 11 10 0 6 -2 10 -4 10 -3 0
-8 -4 -11 -10z"/>
<path d="M2053 394 c-4 -11 -13 -25 -21 -33 -9 -9 -10 -17 -4 -23 13 -13 32
-2 32 18 0 17 16 19 23 2 3 -7 6 -3 6 8 1 12 -6 27 -14 34 -12 10 -16 9 -22
-6z"/>
</g>
</svg>
